<?xml version="1.0" encoding="UTF-8" standalone="no"?>
<!DOCTYPE svg PUBLIC "-//W3C//DTD SVG 1.1//EN"
 "http://www.w3.org/Graphics/SVG/1.1/DTD/svg11.dtd">
<!-- Generated by graphviz version 2.30.1 (20130711.0844)
 -->
<!-- Title: controllers_diagram Pages: 1 -->
<svg width="765pt" height="694pt"
 viewBox="0.00 0.00 765.38 693.84" xmlns="http://www.w3.org/2000/svg" xmlns:xlink="http://www.w3.org/1999/xlink">
<g id="graph0" class="graph" transform="scale(1 1) rotate(0) translate(4 689.841)">
<title>controllers_diagram</title>
<polygon fill="white" stroke="white" points="-4,5 -4,-689.841 762.375,-689.841 762.375,5 -4,5"/>
<!-- _diagram_info -->
<g id="node1" class="node"><title>_diagram_info</title>
<text text-anchor="start" x="558" y="-169" font-family="Times,serif" font-size="13.00">Controllers diagram</text>
<text text-anchor="start" x="558" y="-153.4" font-family="Times,serif" font-size="13.00">Date: Jul 16 2013 &#45; 17:56</text>
<text text-anchor="start" x="558" y="-137.8" font-family="Times,serif" font-size="13.00">Migration version: 20130716154233</text>
<text text-anchor="start" x="558" y="-122.2" font-family="Times,serif" font-size="13.00">Generated by RailRoady 1.1.0</text>
<text text-anchor="start" x="558" y="-106.6" font-family="Times,serif" font-size="13.00">http://railroady.prestonlee.com</text>
</g>
<!-- ApplicationController -->
<g id="node2" class="node"><title>ApplicationController</title>
<path fill="none" stroke="black" d="M176.448,-265.295C176.448,-265.295 355.082,-265.295 355.082,-265.295 361.082,-265.295 367.082,-271.295 367.082,-277.295 367.082,-277.295 367.082,-402.095 367.082,-402.095 367.082,-408.095 361.082,-414.095 355.082,-414.095 355.082,-414.095 176.448,-414.095 176.448,-414.095 170.448,-414.095 164.448,-408.095 164.448,-402.095 164.448,-402.095 164.448,-277.295 164.448,-277.295 164.448,-271.295 170.448,-265.295 176.448,-265.295"/>
<text text-anchor="middle" x="265.765" y="-396.095" font-family="Times,serif" font-size="14.00">ApplicationController</text>
<polyline fill="none" stroke="black" points="164.448,-389.295 367.082,-389.295 "/>
<text text-anchor="start" x="172.448" y="-371.295" font-family="Times,serif" font-size="14.00">_one_time_conditions_valid_12?</text>
<text text-anchor="start" x="172.448" y="-354.495" font-family="Times,serif" font-size="14.00">current_user</text>
<text text-anchor="start" x="172.448" y="-337.695" font-family="Times,serif" font-size="14.00">logged_in?</text>
<polyline fill="none" stroke="black" points="164.448,-330.895 367.082,-330.895 "/>
<polyline fill="none" stroke="black" points="164.448,-306.895 367.082,-306.895 "/>
<text text-anchor="start" x="172.448" y="-288.895" font-family="Times,serif" font-size="14.00">_layout</text>
<text text-anchor="start" x="172.448" y="-272.095" font-family="Times,serif" font-size="14.00">authenticate</text>
</g>
<!-- AssignmentsController -->
<g id="node3" class="node"><title>AssignmentsController</title>
<path fill="none" stroke="black" d="M416.581,-247.329C416.581,-247.329 538.464,-247.329 538.464,-247.329 544.464,-247.329 550.464,-253.329 550.464,-259.329 550.464,-259.329 550.464,-434.529 550.464,-434.529 550.464,-440.529 544.464,-446.529 538.464,-446.529 538.464,-446.529 416.581,-446.529 416.581,-446.529 410.581,-446.529 404.581,-440.529 404.581,-434.529 404.581,-434.529 404.581,-259.329 404.581,-259.329 404.581,-253.329 410.581,-247.329 416.581,-247.329"/>
<text text-anchor="middle" x="477.523" y="-428.529" font-family="Times,serif" font-size="14.00">AssignmentsController</text>
<polyline fill="none" stroke="black" points="404.581,-421.729 550.464,-421.729 "/>
<text text-anchor="start" x="412.581" y="-403.729" font-family="Times,serif" font-size="14.00">create</text>
<text text-anchor="start" x="412.581" y="-386.929" font-family="Times,serif" font-size="14.00">destroy</text>
<text text-anchor="start" x="412.581" y="-370.129" font-family="Times,serif" font-size="14.00">edit</text>
<text text-anchor="start" x="412.581" y="-353.329" font-family="Times,serif" font-size="14.00">index</text>
<text text-anchor="start" x="412.581" y="-336.529" font-family="Times,serif" font-size="14.00">new</text>
<text text-anchor="start" x="412.581" y="-319.729" font-family="Times,serif" font-size="14.00">show</text>
<text text-anchor="start" x="412.581" y="-302.929" font-family="Times,serif" font-size="14.00">update</text>
<polyline fill="none" stroke="black" points="404.581,-296.129 550.464,-296.129 "/>
<polyline fill="none" stroke="black" points="404.581,-272.129 550.464,-272.129 "/>
<text text-anchor="start" x="412.581" y="-254.129" font-family="Times,serif" font-size="14.00">_layout</text>
</g>
<!-- ApplicationController&#45;&gt;AssignmentsController -->
<g id="edge1" class="edge"><title>ApplicationController&#45;&gt;AssignmentsController</title>
<path fill="none" stroke="black" d="M367.302,-343.163C379.827,-343.591 392.434,-344.022 404.418,-344.431"/>
</g>
<!-- CoursesController -->
<g id="node4" class="node"><title>CoursesController</title>
<path fill="none" stroke="black" d="M70.3148,-0.5C70.3148,-0.5 164.97,-0.5 164.97,-0.5 170.97,-0.5 176.97,-6.5 176.97,-12.5 176.97,-12.5 176.97,-187.7 176.97,-187.7 176.97,-193.7 170.97,-199.7 164.97,-199.7 164.97,-199.7 70.3148,-199.7 70.3148,-199.7 64.3148,-199.7 58.3148,-193.7 58.3148,-187.7 58.3148,-187.7 58.3148,-12.5 58.3148,-12.5 58.3148,-6.5 64.3148,-0.5 70.3148,-0.5"/>
<text text-anchor="middle" x="117.642" y="-181.7" font-family="Times,serif" font-size="14.00">CoursesController</text>
<polyline fill="none" stroke="black" points="58.3148,-174.9 176.97,-174.9 "/>
<text text-anchor="start" x="66.3148" y="-156.9" font-family="Times,serif" font-size="14.00">create</text>
<text text-anchor="start" x="66.3148" y="-140.1" font-family="Times,serif" font-size="14.00">destroy</text>
<text text-anchor="start" x="66.3148" y="-123.3" font-family="Times,serif" font-size="14.00">edit</text>
<text text-anchor="start" x="66.3148" y="-106.5" font-family="Times,serif" font-size="14.00">index</text>
<text text-anchor="start" x="66.3148" y="-89.7" font-family="Times,serif" font-size="14.00">new</text>
<text text-anchor="start" x="66.3148" y="-72.9" font-family="Times,serif" font-size="14.00">show</text>
<text text-anchor="start" x="66.3148" y="-56.1" font-family="Times,serif" font-size="14.00">update</text>
<polyline fill="none" stroke="black" points="58.3148,-49.3 176.97,-49.3 "/>
<polyline fill="none" stroke="black" points="58.3148,-25.3 176.97,-25.3 "/>
<text text-anchor="start" x="66.3148" y="-7.3" font-family="Times,serif" font-size="14.00">_layout</text>
</g>
<!-- ApplicationController&#45;&gt;CoursesController -->
<g id="edge2" class="edge"><title>ApplicationController&#45;&gt;CoursesController</title>
<path fill="none" stroke="black" d="M219.71,-265.199C206.207,-243.357 191.247,-219.159 177.038,-196.175"/>
</g>
<!-- EventsController -->
<g id="node5" class="node"><title>EventsController</title>
<path fill="none" stroke="black" d="M15.8331,-483.277C15.8331,-483.277 103.482,-483.277 103.482,-483.277 109.482,-483.277 115.482,-489.277 115.482,-495.277 115.482,-495.277 115.482,-670.477 115.482,-670.477 115.482,-676.477 109.482,-682.477 103.482,-682.477 103.482,-682.477 15.8331,-682.477 15.8331,-682.477 9.83313,-682.477 3.83313,-676.477 3.83313,-670.477 3.83313,-670.477 3.83313,-495.277 3.83313,-495.277 3.83313,-489.277 9.83313,-483.277 15.8331,-483.277"/>
<text text-anchor="middle" x="59.6574" y="-664.477" font-family="Times,serif" font-size="14.00">EventsController</text>
<polyline fill="none" stroke="black" points="3.83313,-657.677 115.482,-657.677 "/>
<text text-anchor="start" x="11.8331" y="-639.677" font-family="Times,serif" font-size="14.00">create</text>
<text text-anchor="start" x="11.8331" y="-622.877" font-family="Times,serif" font-size="14.00">destroy</text>
<text text-anchor="start" x="11.8331" y="-606.077" font-family="Times,serif" font-size="14.00">edit</text>
<text text-anchor="start" x="11.8331" y="-589.277" font-family="Times,serif" font-size="14.00">index</text>
<text text-anchor="start" x="11.8331" y="-572.477" font-family="Times,serif" font-size="14.00">new</text>
<text text-anchor="start" x="11.8331" y="-555.677" font-family="Times,serif" font-size="14.00">show</text>
<text text-anchor="start" x="11.8331" y="-538.877" font-family="Times,serif" font-size="14.00">update</text>
<polyline fill="none" stroke="black" points="3.83313,-532.077 115.482,-532.077 "/>
<polyline fill="none" stroke="black" points="3.83313,-508.077 115.482,-508.077 "/>
<text text-anchor="start" x="11.8331" y="-490.077" font-family="Times,serif" font-size="14.00">_layout</text>
</g>
<!-- ApplicationController&#45;&gt;EventsController -->
<g id="edge3" class="edge"><title>ApplicationController&#45;&gt;EventsController</title>
<path fill="none" stroke="black" d="M202.525,-414.31C174.835,-446.981 142.614,-484.998 115.787,-516.651"/>
</g>
<!-- MaterialsController -->
<g id="node6" class="node"><title>MaterialsController</title>
<path fill="none" stroke="black" d="M418.361,-502.941C418.361,-502.941 520.775,-502.941 520.775,-502.941 526.775,-502.941 532.775,-508.941 532.775,-514.941 532.775,-514.941 532.775,-673.341 532.775,-673.341 532.775,-679.341 526.775,-685.341 520.775,-685.341 520.775,-685.341 418.361,-685.341 418.361,-685.341 412.361,-685.341 406.361,-679.341 406.361,-673.341 406.361,-673.341 406.361,-514.941 406.361,-514.941 406.361,-508.941 412.361,-502.941 418.361,-502.941"/>
<text text-anchor="middle" x="469.568" y="-667.341" font-family="Times,serif" font-size="14.00">MaterialsController</text>
<polyline fill="none" stroke="black" points="406.361,-660.541 532.775,-660.541 "/>
<text text-anchor="start" x="414.361" y="-642.541" font-family="Times,serif" font-size="14.00">create</text>
<text text-anchor="start" x="414.361" y="-625.741" font-family="Times,serif" font-size="14.00">destroy</text>
<text text-anchor="start" x="414.361" y="-608.941" font-family="Times,serif" font-size="14.00">edit</text>
<text text-anchor="start" x="414.361" y="-592.141" font-family="Times,serif" font-size="14.00">index</text>
<text text-anchor="start" x="414.361" y="-575.341" font-family="Times,serif" font-size="14.00">new</text>
<text text-anchor="start" x="414.361" y="-558.541" font-family="Times,serif" font-size="14.00">update</text>
<polyline fill="none" stroke="black" points="406.361,-551.741 532.775,-551.741 "/>
<polyline fill="none" stroke="black" points="406.361,-527.741 532.775,-527.741 "/>
<text text-anchor="start" x="414.361" y="-509.741" font-family="Times,serif" font-size="14.00">_layout</text>
</g>
<!-- ApplicationController&#45;&gt;MaterialsController -->
<g id="edge4" class="edge"><title>ApplicationController&#45;&gt;MaterialsController</title>
<path fill="none" stroke="black" d="M325.536,-414.318C350.906,-445.992 380.504,-482.946 406.248,-515.087"/>
</g>
<!-- OutlinesController -->
<g id="node7" class="node"><title>OutlinesController</title>
<path fill="none" stroke="black" d="M212.01,-539.88C212.01,-539.88 308.996,-539.88 308.996,-539.88 314.996,-539.88 320.996,-545.88 320.996,-551.88 320.996,-551.88 320.996,-643.08 320.996,-643.08 320.996,-649.08 314.996,-655.08 308.996,-655.08 308.996,-655.08 212.01,-655.08 212.01,-655.08 206.01,-655.08 200.01,-649.08 200.01,-643.08 200.01,-643.08 200.01,-551.88 200.01,-551.88 200.01,-545.88 206.01,-539.88 212.01,-539.88"/>
<text text-anchor="middle" x="260.503" y="-637.08" font-family="Times,serif" font-size="14.00">OutlinesController</text>
<polyline fill="none" stroke="black" points="200.01,-630.28 320.996,-630.28 "/>
<text text-anchor="start" x="208.01" y="-612.28" font-family="Times,serif" font-size="14.00">agenda</text>
<text text-anchor="start" x="208.01" y="-595.48" font-family="Times,serif" font-size="14.00">dashboard</text>
<polyline fill="none" stroke="black" points="200.01,-588.68 320.996,-588.68 "/>
<polyline fill="none" stroke="black" points="200.01,-564.68 320.996,-564.68 "/>
<text text-anchor="start" x="208.01" y="-546.68" font-family="Times,serif" font-size="14.00">_layout</text>
</g>
<!-- ApplicationController&#45;&gt;OutlinesController -->
<g id="edge5" class="edge"><title>ApplicationController&#45;&gt;OutlinesController</title>
<path fill="none" stroke="black" d="M264.243,-414.257C263.426,-454.257 262.435,-502.802 261.679,-539.871"/>
</g>
<!-- PeopleController -->
<g id="node8" class="node"><title>PeopleController</title>
<path fill="none" stroke="black" d="M12,-225.386C12,-225.386 99.6484,-225.386 99.6484,-225.386 105.648,-225.386 111.648,-231.386 111.648,-237.386 111.648,-237.386 111.648,-412.586 111.648,-412.586 111.648,-418.586 105.648,-424.586 99.6484,-424.586 99.6484,-424.586 12,-424.586 12,-424.586 6,-424.586 0,-418.586 0,-412.586 0,-412.586 0,-237.386 0,-237.386 0,-231.386 6,-225.386 12,-225.386"/>
<text text-anchor="middle" x="55.8242" y="-406.586" font-family="Times,serif" font-size="14.00">PeopleController</text>
<polyline fill="none" stroke="black" points="0,-399.786 111.648,-399.786 "/>
<text text-anchor="start" x="8" y="-381.786" font-family="Times,serif" font-size="14.00">create</text>
<text text-anchor="start" x="8" y="-364.986" font-family="Times,serif" font-size="14.00">destroy</text>
<text text-anchor="start" x="8" y="-348.186" font-family="Times,serif" font-size="14.00">edit</text>
<text text-anchor="start" x="8" y="-331.386" font-family="Times,serif" font-size="14.00">index</text>
<text text-anchor="start" x="8" y="-314.586" font-family="Times,serif" font-size="14.00">new</text>
<text text-anchor="start" x="8" y="-297.786" font-family="Times,serif" font-size="14.00">show</text>
<text text-anchor="start" x="8" y="-280.986" font-family="Times,serif" font-size="14.00">update</text>
<polyline fill="none" stroke="black" points="0,-274.186 111.648,-274.186 "/>
<polyline fill="none" stroke="black" points="0,-250.186 111.648,-250.186 "/>
<text text-anchor="start" x="8" y="-232.186" font-family="Times,serif" font-size="14.00">_layout</text>
</g>
<!-- ApplicationController&#45;&gt;PeopleController -->
<g id="edge6" class="edge"><title>ApplicationController&#45;&gt;PeopleController</title>
<path fill="none" stroke="black" d="M164.177,-332.577C146.175,-331.316 128.04,-330.045 111.893,-328.914"/>
</g>
<!-- SessionsController -->
<g id="node9" class="node"><title>SessionsController</title>
<path fill="none" stroke="black" d="M379.584,-42.1963C379.584,-42.1963 477.363,-42.1963 477.363,-42.1963 483.363,-42.1963 489.363,-48.1963 489.363,-54.1963 489.363,-54.1963 489.363,-162.196 489.363,-162.196 489.363,-168.196 483.363,-174.196 477.363,-174.196 477.363,-174.196 379.584,-174.196 379.584,-174.196 373.584,-174.196 367.584,-168.196 367.584,-162.196 367.584,-162.196 367.584,-54.1963 367.584,-54.1963 367.584,-48.1963 373.584,-42.1963 379.584,-42.1963"/>
<text text-anchor="middle" x="428.473" y="-156.196" font-family="Times,serif" font-size="14.00">SessionsController</text>
<polyline fill="none" stroke="black" points="367.584,-149.396 489.363,-149.396 "/>
<text text-anchor="start" x="375.584" y="-131.396" font-family="Times,serif" font-size="14.00">create</text>
<text text-anchor="start" x="375.584" y="-114.596" font-family="Times,serif" font-size="14.00">destroy</text>
<text text-anchor="start" x="375.584" y="-97.7963" font-family="Times,serif" font-size="14.00">new</text>
<polyline fill="none" stroke="black" points="367.584,-90.9963 489.363,-90.9963 "/>
<polyline fill="none" stroke="black" points="367.584,-66.9963 489.363,-66.9963 "/>
<text text-anchor="start" x="375.584" y="-48.9963" font-family="Times,serif" font-size="14.00">_layout</text>
</g>
<!-- ApplicationController&#45;&gt;SessionsController -->
<g id="edge7" class="edge"><title>ApplicationController&#45;&gt;SessionsController</title>
<path fill="none" stroke="black" d="M318.143,-265.173C338.673,-235.962 362.037,-202.721 381.962,-174.372"/>
</g>
</g>
</svg>
