<?xml version="1.0" encoding="UTF-8" standalone="no"?>
<!DOCTYPE svg PUBLIC "-//W3C//DTD SVG 1.1//EN"
 "http://www.w3.org/Graphics/SVG/1.1/DTD/svg11.dtd">
<!-- Generated by graphviz version 2.30.1 (20130711.0844)
 -->
<!-- Title: models_diagram Pages: 1 -->
<svg width="624pt" height="382pt"
 viewBox="0.00 0.00 624.00 382.00" xmlns="http://www.w3.org/2000/svg" xmlns:xlink="http://www.w3.org/1999/xlink">
<g id="graph0" class="graph" transform="scale(1 1) rotate(0) translate(4 378)">
<title>models_diagram</title>
<polygon fill="white" stroke="white" points="-4,5 -4,-378 621,-378 621,5 -4,5"/>
<!-- _diagram_info -->
<g id="node1" class="node"><title>_diagram_info</title>
<text text-anchor="start" x="7.31226" y="-357" font-family="Times,serif" font-size="13.00">Models diagram</text>
<text text-anchor="start" x="7.31226" y="-341.4" font-family="Times,serif" font-size="13.00">Date: Jul 16 2013 &#45; 17:56</text>
<text text-anchor="start" x="7.31226" y="-325.8" font-family="Times,serif" font-size="13.00">Migration version: 20130716154233</text>
<text text-anchor="start" x="7.31226" y="-310.2" font-family="Times,serif" font-size="13.00">Generated by RailRoady 1.1.0</text>
<text text-anchor="start" x="7.31226" y="-294.6" font-family="Times,serif" font-size="13.00">http://railroady.prestonlee.com</text>
</g>
<!-- Ability -->
<g id="node2" class="node"><title>Ability</title>
<polygon fill="none" stroke="black" points="280.255,-349 225.745,-349 225.745,-313 280.255,-313 280.255,-349"/>
<text text-anchor="middle" x="253" y="-325.4" font-family="Times,serif" font-size="14.00">Ability</text>
</g>
<!-- Assignment -->
<g id="node3" class="node"><title>Assignment</title>
<ellipse fill="none" stroke="black" cx="142" cy="-162" rx="57.2639" ry="18"/>
<text text-anchor="middle" x="142" y="-156.4" font-family="Times,serif" font-size="14.00">Assignment</text>
</g>
<!-- Event -->
<g id="node7" class="node"><title>Event</title>
<ellipse fill="none" stroke="black" cx="199" cy="-90" rx="33.3419" ry="18"/>
<text text-anchor="middle" x="199" y="-84.4" font-family="Times,serif" font-size="14.00">Event</text>
</g>
<!-- Assignment&#45;&gt;Event -->
<g id="edge1" class="edge"><title>Assignment&#45;&gt;Event</title>
<path fill="none" stroke="#e315d4" d="M154.821,-137.367C161.191,-128.928 168.944,-119.5 176.226,-111.36"/>
<ellipse fill="none" stroke="#e315d4" cx="152.284" cy="-140.829" rx="4.00002" ry="4.00002"/>
<ellipse fill="#e315d4" stroke="#e315d4" cx="178.968" cy="-108.372" rx="4.00002" ry="4.00002"/>
</g>
<!-- Calendar -->
<g id="node4" class="node"><title>Calendar</title>
<ellipse fill="none" stroke="black" cx="459" cy="-331" rx="45.3394" ry="18"/>
<text text-anchor="middle" x="459" y="-325.4" font-family="Times,serif" font-size="14.00">Calendar</text>
</g>
<!-- Company -->
<g id="node5" class="node"><title>Company</title>
<ellipse fill="none" stroke="black" cx="347" cy="-331" rx="48.3834" ry="18"/>
<text text-anchor="middle" x="347" y="-325.4" font-family="Times,serif" font-size="14.00">Company</text>
</g>
<!-- Location -->
<g id="node8" class="node"><title>Location</title>
<ellipse fill="none" stroke="black" cx="347" cy="-234" rx="45.0398" ry="18"/>
<text text-anchor="middle" x="347" y="-228.4" font-family="Times,serif" font-size="14.00">Location</text>
</g>
<!-- Company&#45;&gt;Location -->
<g id="edge2" class="edge"><title>Company&#45;&gt;Location</title>
<path fill="none" stroke="#00e782" d="M347,-304.414C347,-291.518 347,-275.862 347,-262.685"/>
<ellipse fill="none" stroke="#00e782" cx="347" cy="-308.576" rx="4" ry="4"/>
<polygon fill="#00e782" stroke="#00e782" points="347,-262.314 351.5,-252.314 347,-257.314 347,-252.314 347,-252.314 347,-252.314 347,-257.314 342.5,-252.314 347,-262.314 347,-262.314"/>
</g>
<!-- Course -->
<g id="node6" class="node"><title>Course</title>
<ellipse fill="none" stroke="black" cx="256" cy="-162" rx="38.0929" ry="18"/>
<text text-anchor="middle" x="256" y="-156.4" font-family="Times,serif" font-size="14.00">Course</text>
</g>
<!-- Course&#45;&gt;Event -->
<g id="edge3" class="edge"><title>Course&#45;&gt;Event</title>
<path fill="none" stroke="#c30a40" d="M236.27,-136.771C230.432,-129.601 224.049,-121.762 218.242,-114.631"/>
<polygon fill="#c30a40" stroke="#c30a40" points="236.465,-137.01 239.29,-147.606 239.623,-140.887 242.78,-144.765 242.78,-144.765 242.78,-144.765 239.623,-140.887 246.269,-141.923 236.465,-137.01 236.465,-137.01"/>
<polygon fill="#c30a40" stroke="#c30a40" points="218.071,-114.42 215.246,-103.824 214.914,-110.543 211.756,-106.666 211.756,-106.666 211.756,-106.666 214.914,-110.543 208.267,-109.507 218.071,-114.42 218.071,-114.42"/>
</g>
<!-- Person -->
<g id="node10" class="node"><title>Person</title>
<ellipse fill="none" stroke="black" cx="150" cy="-18" rx="36.9881" ry="18"/>
<text text-anchor="middle" x="150" y="-12.4" font-family="Times,serif" font-size="14.00">Person</text>
</g>
<!-- Event&#45;&gt;Person -->
<g id="edge4" class="edge"><title>Event&#45;&gt;Person</title>
<path fill="none" stroke="#4d5b95" d="M181.708,-64.2975C177.051,-57.6446 172.013,-50.4468 167.352,-43.7892"/>
<polygon fill="#4d5b95" stroke="#4d5b95" points="181.901,-64.5723 183.949,-75.3452 184.768,-68.6685 187.635,-72.7646 187.635,-72.7646 187.635,-72.7646 184.768,-68.6685 191.322,-70.184 181.901,-64.5723 181.901,-64.5723"/>
<polygon fill="#4d5b95" stroke="#4d5b95" points="167.038,-43.3396 164.99,-32.5667 164.17,-39.2435 161.303,-35.1473 161.303,-35.1473 161.303,-35.1473 164.17,-39.2435 157.617,-37.7279 167.038,-43.3396 167.038,-43.3396"/>
</g>
<!-- Event&#45;&gt;Assignment -->
<g id="edge5" class="edge"><title>Event&#45;&gt;Assignment</title>
<path fill="none" stroke="#f7afec" d="M186.265,-114.519C180.369,-122.337 173.277,-131.014 166.467,-138.734"/>
<ellipse fill="none" stroke="#f7afec" cx="188.939" cy="-110.862" rx="4.00002" ry="4.00002"/>
<ellipse fill="#f7afec" stroke="#f7afec" cx="163.702" cy="-141.796" rx="4.00002" ry="4.00002"/>
</g>
<!-- Material -->
<g id="node9" class="node"><title>Material</title>
<ellipse fill="none" stroke="black" cx="249" cy="-18" rx="43.6191" ry="18"/>
<text text-anchor="middle" x="249" y="-12.4" font-family="Times,serif" font-size="14.00">Material</text>
</g>
<!-- Event&#45;&gt;Material -->
<g id="edge6" class="edge"><title>Event&#45;&gt;Material</title>
<path fill="none" stroke="#132315" d="M215.313,-66.1611C220.756,-58.5416 226.826,-50.044 232.297,-42.3837"/>
<ellipse fill="none" stroke="#132315" cx="212.922" cy="-69.5097" rx="4.00002" ry="4.00002"/>
<ellipse fill="#132315" stroke="#132315" cx="234.794" cy="-38.8883" rx="4.00002" ry="4.00002"/>
</g>
<!-- Room -->
<g id="node11" class="node"><title>Room</title>
<ellipse fill="none" stroke="black" cx="347" cy="-162" rx="34.4683" ry="18"/>
<text text-anchor="middle" x="347" y="-156.4" font-family="Times,serif" font-size="14.00">Room</text>
</g>
<!-- Location&#45;&gt;Room -->
<g id="edge7" class="edge"><title>Location&#45;&gt;Room</title>
<path fill="none" stroke="#f3dc7d" d="M347,-207.64C347,-202.063 347,-196.132 347,-190.476"/>
<ellipse fill="none" stroke="#f3dc7d" cx="347" cy="-211.697" rx="4" ry="4"/>
<polygon fill="#f3dc7d" stroke="#f3dc7d" points="347,-190.104 351.5,-180.104 347,-185.104 347,-180.104 347,-180.104 347,-180.104 347,-185.104 342.5,-180.104 347,-190.104 347,-190.104"/>
</g>
<!-- Room&#45;&gt;Event -->
<g id="edge8" class="edge"><title>Room&#45;&gt;Event</title>
<path fill="none" stroke="#aded2e" d="M314.796,-145.768C290.516,-134.285 257.305,-118.577 232.674,-106.927"/>
<ellipse fill="none" stroke="#aded2e" cx="318.612" cy="-147.573" rx="4.00002" ry="4.00002"/>
<polygon fill="#aded2e" stroke="#aded2e" points="232.4,-106.797 225.284,-98.4538 227.88,-104.66 223.36,-102.522 223.36,-102.522 223.36,-102.522 227.88,-104.66 221.436,-106.59 232.4,-106.797 232.4,-106.797"/>
</g>
<!-- TimeSlot -->
<g id="node12" class="node"><title>TimeSlot</title>
<ellipse fill="none" stroke="black" cx="570" cy="-331" rx="46.4692" ry="18"/>
<text text-anchor="middle" x="570" y="-325.4" font-family="Times,serif" font-size="14.00">TimeSlot</text>
</g>
</g>
</svg>
