<?xml version="1.0" encoding="UTF-8" standalone="no"?>
<!DOCTYPE svg PUBLIC "-//W3C//DTD SVG 1.1//EN"
 "http://www.w3.org/Graphics/SVG/1.1/DTD/svg11.dtd">
<!-- Generated by graphviz version 2.30.1 (20130711.0844)
 -->
<!-- Title: models_diagram Pages: 1 -->
<svg width="756pt" height="946pt"
 viewBox="0.00 0.00 756.00 946.00" xmlns="http://www.w3.org/2000/svg" xmlns:xlink="http://www.w3.org/1999/xlink">
<g id="graph0" class="graph" transform="scale(1 1) rotate(0) translate(4 942)">
<title>models_diagram</title>
<polygon fill="white" stroke="white" points="-4,5 -4,-942 753,-942 753,5 -4,5"/>
<!-- _diagram_info -->
<g id="node1" class="node"><title>_diagram_info</title>
<text text-anchor="start" x="22.3123" y="-896" font-family="Times,serif" font-size="13.00">Models diagram</text>
<text text-anchor="start" x="22.3123" y="-880.4" font-family="Times,serif" font-size="13.00">Date: Jul 16 2013 &#45; 17:56</text>
<text text-anchor="start" x="22.3123" y="-864.8" font-family="Times,serif" font-size="13.00">Migration version: 20130716154233</text>
<text text-anchor="start" x="22.3123" y="-849.2" font-family="Times,serif" font-size="13.00">Generated by RailRoady 1.1.0</text>
<text text-anchor="start" x="22.3123" y="-833.6" font-family="Times,serif" font-size="13.00">http://railroady.prestonlee.com</text>
</g>
<!-- Ability -->
<g id="node2" class="node"><title>Ability</title>
<polygon fill="none" stroke="black" points="240.166,-845.2 240.166,-894.8 295.834,-894.8 295.834,-845.2 240.166,-845.2"/>
<text text-anchor="middle" x="268" y="-876.8" font-family="Times,serif" font-size="14.00">Ability</text>
<polyline fill="none" stroke="black" points="240.166,-870 295.834,-870 "/>
<text text-anchor="middle" x="268" y="-852" font-family="Times,serif" font-size="14.00"> </text>
</g>
<!-- Assignment -->
<g id="node3" class="node"><title>Assignment</title>
<path fill="none" stroke="black" d="M23.4946,-444.4C23.4946,-444.4 132.505,-444.4 132.505,-444.4 138.505,-444.4 144.505,-450.4 144.505,-456.4 144.505,-456.4 144.505,-599.6 144.505,-599.6 144.505,-605.6 138.505,-611.6 132.505,-611.6 132.505,-611.6 23.4946,-611.6 23.4946,-611.6 17.4946,-611.6 11.4946,-605.6 11.4946,-599.6 11.4946,-599.6 11.4946,-456.4 11.4946,-456.4 11.4946,-450.4 17.4946,-444.4 23.4946,-444.4"/>
<text text-anchor="middle" x="78" y="-593.6" font-family="Times,serif" font-size="14.00">Assignment</text>
<polyline fill="none" stroke="black" points="11.4946,-586.8 144.505,-586.8 "/>
<text text-anchor="start" x="19.4946" y="-568.8" font-family="Times,serif" font-size="14.00">id :integer</text>
<text text-anchor="start" x="19.4946" y="-552" font-family="Times,serif" font-size="14.00">due_date :datetime</text>
<text text-anchor="start" x="19.4946" y="-535.2" font-family="Times,serif" font-size="14.00">name :string</text>
<text text-anchor="start" x="19.4946" y="-518.4" font-family="Times,serif" font-size="14.00">created_at :datetime</text>
<text text-anchor="start" x="19.4946" y="-501.6" font-family="Times,serif" font-size="14.00">updated_at :datetime</text>
<text text-anchor="start" x="19.4946" y="-484.8" font-family="Times,serif" font-size="14.00">description :text</text>
<text text-anchor="start" x="19.4946" y="-468" font-family="Times,serif" font-size="14.00">event_id :integer</text>
<text text-anchor="start" x="19.4946" y="-451.2" font-family="Times,serif" font-size="14.00">file :string</text>
</g>
<!-- Event -->
<g id="node7" class="node"><title>Event</title>
<path fill="none" stroke="black" d="M98.4946,-223C98.4946,-223 207.505,-223 207.505,-223 213.505,-223 219.505,-229 219.505,-235 219.505,-235 219.505,-395 219.505,-395 219.505,-401 213.505,-407 207.505,-407 207.505,-407 98.4946,-407 98.4946,-407 92.4946,-407 86.4946,-401 86.4946,-395 86.4946,-395 86.4946,-235 86.4946,-235 86.4946,-229 92.4946,-223 98.4946,-223"/>
<text text-anchor="middle" x="153" y="-389" font-family="Times,serif" font-size="14.00">Event</text>
<polyline fill="none" stroke="black" points="86.4946,-382.2 219.505,-382.2 "/>
<text text-anchor="start" x="94.4946" y="-364.2" font-family="Times,serif" font-size="14.00">id :integer</text>
<text text-anchor="start" x="94.4946" y="-347.4" font-family="Times,serif" font-size="14.00">scheduled_date :date</text>
<text text-anchor="start" x="94.4946" y="-330.6" font-family="Times,serif" font-size="14.00">time_slot :string</text>
<text text-anchor="start" x="94.4946" y="-313.8" font-family="Times,serif" font-size="14.00">name :string</text>
<text text-anchor="start" x="94.4946" y="-297" font-family="Times,serif" font-size="14.00">description :text</text>
<text text-anchor="start" x="94.4946" y="-280.2" font-family="Times,serif" font-size="14.00">created_at :datetime</text>
<text text-anchor="start" x="94.4946" y="-263.4" font-family="Times,serif" font-size="14.00">updated_at :datetime</text>
<text text-anchor="start" x="94.4946" y="-246.6" font-family="Times,serif" font-size="14.00">teacher :integer</text>
<text text-anchor="start" x="94.4946" y="-229.8" font-family="Times,serif" font-size="14.00">room_id :integer</text>
</g>
<!-- Assignment&#45;&gt;Event -->
<g id="edge1" class="edge"><title>Assignment&#45;&gt;Event</title>
<path fill="none" stroke="#28cc1c" d="M103.482,-436.492C105.951,-429.382 108.495,-422.179 111.066,-415.017"/>
<ellipse fill="none" stroke="#28cc1c" cx="102.123" cy="-440.432" rx="4.00001" ry="4.00001"/>
<ellipse fill="#28cc1c" stroke="#28cc1c" cx="112.506" cy="-411.029" rx="4.00001" ry="4.00001"/>
</g>
<!-- Calendar -->
<g id="node4" class="node"><title>Calendar</title>
<path fill="none" stroke="black" d="M476.495,-811.6C476.495,-811.6 585.505,-811.6 585.505,-811.6 591.505,-811.6 597.505,-817.6 597.505,-823.6 597.505,-823.6 597.505,-916.4 597.505,-916.4 597.505,-922.4 591.505,-928.4 585.505,-928.4 585.505,-928.4 476.495,-928.4 476.495,-928.4 470.495,-928.4 464.495,-922.4 464.495,-916.4 464.495,-916.4 464.495,-823.6 464.495,-823.6 464.495,-817.6 470.495,-811.6 476.495,-811.6"/>
<text text-anchor="middle" x="531" y="-910.4" font-family="Times,serif" font-size="14.00">Calendar</text>
<polyline fill="none" stroke="black" points="464.495,-903.6 597.505,-903.6 "/>
<text text-anchor="start" x="472.495" y="-885.6" font-family="Times,serif" font-size="14.00">id :integer</text>
<text text-anchor="start" x="472.495" y="-868.8" font-family="Times,serif" font-size="14.00">date :date</text>
<text text-anchor="start" x="472.495" y="-852" font-family="Times,serif" font-size="14.00">time_slot :integer</text>
<text text-anchor="start" x="472.495" y="-835.2" font-family="Times,serif" font-size="14.00">created_at :datetime</text>
<text text-anchor="start" x="472.495" y="-818.4" font-family="Times,serif" font-size="14.00">updated_at :datetime</text>
</g>
<!-- Company -->
<g id="node5" class="node"><title>Company</title>
<path fill="none" stroke="black" d="M325.495,-803.2C325.495,-803.2 434.505,-803.2 434.505,-803.2 440.505,-803.2 446.505,-809.2 446.505,-815.2 446.505,-815.2 446.505,-924.8 446.505,-924.8 446.505,-930.8 440.505,-936.8 434.505,-936.8 434.505,-936.8 325.495,-936.8 325.495,-936.8 319.495,-936.8 313.495,-930.8 313.495,-924.8 313.495,-924.8 313.495,-815.2 313.495,-815.2 313.495,-809.2 319.495,-803.2 325.495,-803.2"/>
<text text-anchor="middle" x="380" y="-918.8" font-family="Times,serif" font-size="14.00">Company</text>
<polyline fill="none" stroke="black" points="313.495,-912 446.505,-912 "/>
<text text-anchor="start" x="321.495" y="-894" font-family="Times,serif" font-size="14.00">id :integer</text>
<text text-anchor="start" x="321.495" y="-877.2" font-family="Times,serif" font-size="14.00">name :string</text>
<text text-anchor="start" x="321.495" y="-860.4" font-family="Times,serif" font-size="14.00">description :string</text>
<text text-anchor="start" x="321.495" y="-843.6" font-family="Times,serif" font-size="14.00">email :string</text>
<text text-anchor="start" x="321.495" y="-826.8" font-family="Times,serif" font-size="14.00">created_at :datetime</text>
<text text-anchor="start" x="321.495" y="-810" font-family="Times,serif" font-size="14.00">updated_at :datetime</text>
</g>
<!-- Location -->
<g id="node8" class="node"><title>Location</title>
<path fill="none" stroke="black" d="M325.495,-648.6C325.495,-648.6 434.505,-648.6 434.505,-648.6 440.505,-648.6 446.505,-654.6 446.505,-660.6 446.505,-660.6 446.505,-753.4 446.505,-753.4 446.505,-759.4 440.505,-765.4 434.505,-765.4 434.505,-765.4 325.495,-765.4 325.495,-765.4 319.495,-765.4 313.495,-759.4 313.495,-753.4 313.495,-753.4 313.495,-660.6 313.495,-660.6 313.495,-654.6 319.495,-648.6 325.495,-648.6"/>
<text text-anchor="middle" x="380" y="-747.4" font-family="Times,serif" font-size="14.00">Location</text>
<polyline fill="none" stroke="black" points="313.495,-740.6 446.505,-740.6 "/>
<text text-anchor="start" x="321.495" y="-722.6" font-family="Times,serif" font-size="14.00">id :integer</text>
<text text-anchor="start" x="321.495" y="-705.8" font-family="Times,serif" font-size="14.00">address :string</text>
<text text-anchor="start" x="321.495" y="-689" font-family="Times,serif" font-size="14.00">company_id :integer</text>
<text text-anchor="start" x="321.495" y="-672.2" font-family="Times,serif" font-size="14.00">created_at :datetime</text>
<text text-anchor="start" x="321.495" y="-655.4" font-family="Times,serif" font-size="14.00">updated_at :datetime</text>
</g>
<!-- Company&#45;&gt;Location -->
<g id="edge2" class="edge"><title>Company&#45;&gt;Location</title>
<path fill="none" stroke="#aa1866" d="M380,-794.845C380,-788.555 380,-782.213 380,-775.974"/>
<ellipse fill="none" stroke="#aa1866" cx="380" cy="-799.051" rx="4" ry="4"/>
<polygon fill="#aa1866" stroke="#aa1866" points="380,-775.598 384.5,-765.598 380,-770.598 380,-765.598 380,-765.598 380,-765.598 380,-770.598 375.5,-765.598 380,-775.598 380,-775.598"/>
</g>
<!-- Course -->
<g id="node6" class="node"><title>Course</title>
<path fill="none" stroke="black" d="M174.495,-469.6C174.495,-469.6 283.505,-469.6 283.505,-469.6 289.505,-469.6 295.505,-475.6 295.505,-481.6 295.505,-481.6 295.505,-574.4 295.505,-574.4 295.505,-580.4 289.505,-586.4 283.505,-586.4 283.505,-586.4 174.495,-586.4 174.495,-586.4 168.495,-586.4 162.495,-580.4 162.495,-574.4 162.495,-574.4 162.495,-481.6 162.495,-481.6 162.495,-475.6 168.495,-469.6 174.495,-469.6"/>
<text text-anchor="middle" x="229" y="-568.4" font-family="Times,serif" font-size="14.00">Course</text>
<polyline fill="none" stroke="black" points="162.495,-561.6 295.505,-561.6 "/>
<text text-anchor="start" x="170.495" y="-543.6" font-family="Times,serif" font-size="14.00">id :integer</text>
<text text-anchor="start" x="170.495" y="-526.8" font-family="Times,serif" font-size="14.00">name :string</text>
<text text-anchor="start" x="170.495" y="-510" font-family="Times,serif" font-size="14.00">description :text</text>
<text text-anchor="start" x="170.495" y="-493.2" font-family="Times,serif" font-size="14.00">created_at :datetime</text>
<text text-anchor="start" x="170.495" y="-476.4" font-family="Times,serif" font-size="14.00">updated_at :datetime</text>
</g>
<!-- Course&#45;&gt;Event -->
<g id="edge3" class="edge"><title>Course&#45;&gt;Event</title>
<path fill="none" stroke="#1935ad" d="M204.764,-459.714C199.839,-446.04 194.557,-431.376 189.318,-416.831"/>
<polygon fill="#1935ad" stroke="#1935ad" points="204.844,-459.935 203.999,-470.868 206.538,-464.639 208.233,-469.343 208.233,-469.343 208.233,-469.343 206.538,-464.639 212.466,-467.818 204.844,-459.935 204.844,-459.935"/>
<polygon fill="#1935ad" stroke="#1935ad" points="189.275,-416.71 190.12,-405.776 187.58,-412.005 185.886,-407.301 185.886,-407.301 185.886,-407.301 187.58,-412.005 181.652,-408.826 189.275,-416.71 189.275,-416.71"/>
</g>
<!-- Person -->
<g id="node10" class="node"><title>Person</title>
<path fill="none" stroke="black" d="M11.6982,-1C11.6982,-1 136.302,-1 136.302,-1 142.302,-1 148.302,-7 148.302,-13 148.302,-13 148.302,-173 148.302,-173 148.302,-179 142.302,-185 136.302,-185 136.302,-185 11.6982,-185 11.6982,-185 5.69824,-185 -0.301758,-179 -0.301758,-173 -0.301758,-173 -0.301758,-13 -0.301758,-13 -0.301758,-7 5.69824,-1 11.6982,-1"/>
<text text-anchor="middle" x="74" y="-167" font-family="Times,serif" font-size="14.00">Person</text>
<polyline fill="none" stroke="black" points="-0.301758,-160.2 148.302,-160.2 "/>
<text text-anchor="start" x="7.69824" y="-142.2" font-family="Times,serif" font-size="14.00">id :integer</text>
<text text-anchor="start" x="7.69824" y="-125.4" font-family="Times,serif" font-size="14.00">name :string</text>
<text text-anchor="start" x="7.69824" y="-108.6" font-family="Times,serif" font-size="14.00">surname :string</text>
<text text-anchor="start" x="7.69824" y="-91.8" font-family="Times,serif" font-size="14.00">email :string</text>
<text text-anchor="start" x="7.69824" y="-75" font-family="Times,serif" font-size="14.00">password_digest :string</text>
<text text-anchor="start" x="7.69824" y="-58.2" font-family="Times,serif" font-size="14.00">phone :string</text>
<text text-anchor="start" x="7.69824" y="-41.4" font-family="Times,serif" font-size="14.00">created_at :datetime</text>
<text text-anchor="start" x="7.69824" y="-24.6" font-family="Times,serif" font-size="14.00">updated_at :datetime</text>
<text text-anchor="start" x="7.69824" y="-7.8" font-family="Times,serif" font-size="14.00">role :string</text>
</g>
<!-- Event&#45;&gt;Person -->
<g id="edge4" class="edge"><title>Event&#45;&gt;Person</title>
<path fill="none" stroke="#1527a7" d="M116.904,-213.479C114.667,-207.25 112.415,-200.979 110.178,-194.749"/>
<polygon fill="#1527a7" stroke="#1527a7" points="116.918,-213.518 116.062,-224.45 118.608,-218.224 120.297,-222.93 120.297,-222.93 120.297,-222.93 118.608,-218.224 124.533,-221.409 116.918,-213.518 116.918,-213.518"/>
<polygon fill="#1527a7" stroke="#1527a7" points="110.058,-194.414 110.913,-183.481 108.368,-189.708 106.678,-185.002 106.678,-185.002 106.678,-185.002 108.368,-189.708 102.443,-186.523 110.058,-194.414 110.058,-194.414"/>
</g>
<!-- Event&#45;&gt;Assignment -->
<g id="edge5" class="edge"><title>Event&#45;&gt;Assignment</title>
<path fill="none" stroke="#dfd983" d="M124.543,-415.017C122.022,-422.179 119.446,-429.382 116.86,-436.492"/>
<ellipse fill="none" stroke="#dfd983" cx="125.934" cy="-411.042" rx="4.00001" ry="4.00001"/>
<ellipse fill="#dfd983" stroke="#dfd983" cx="115.41" cy="-440.456" rx="4.00001" ry="4.00001"/>
</g>
<!-- Material -->
<g id="node9" class="node"><title>Material</title>
<path fill="none" stroke="black" d="M178.495,-34.6C178.495,-34.6 287.505,-34.6 287.505,-34.6 293.505,-34.6 299.505,-40.6 299.505,-46.6 299.505,-46.6 299.505,-139.4 299.505,-139.4 299.505,-145.4 293.505,-151.4 287.505,-151.4 287.505,-151.4 178.495,-151.4 178.495,-151.4 172.495,-151.4 166.495,-145.4 166.495,-139.4 166.495,-139.4 166.495,-46.6 166.495,-46.6 166.495,-40.6 172.495,-34.6 178.495,-34.6"/>
<text text-anchor="middle" x="233" y="-133.4" font-family="Times,serif" font-size="14.00">Material</text>
<polyline fill="none" stroke="black" points="166.495,-126.6 299.505,-126.6 "/>
<text text-anchor="start" x="174.495" y="-108.6" font-family="Times,serif" font-size="14.00">id :integer</text>
<text text-anchor="start" x="174.495" y="-91.8" font-family="Times,serif" font-size="14.00">file :string</text>
<text text-anchor="start" x="174.495" y="-75" font-family="Times,serif" font-size="14.00">created_at :datetime</text>
<text text-anchor="start" x="174.495" y="-58.2" font-family="Times,serif" font-size="14.00">updated_at :datetime</text>
<text text-anchor="start" x="174.495" y="-41.4" font-family="Times,serif" font-size="14.00">event_id :integer</text>
</g>
<!-- Event&#45;&gt;Material -->
<g id="edge6" class="edge"><title>Event&#45;&gt;Material</title>
<path fill="none" stroke="#753ca5" d="M188.904,-215.263C195.766,-196.394 202.79,-177.077 209.158,-159.567"/>
<ellipse fill="none" stroke="#753ca5" cx="187.484" cy="-219.17" rx="4.00001" ry="4.00001"/>
<ellipse fill="#753ca5" stroke="#753ca5" cx="210.667" cy="-155.416" rx="4.00001" ry="4.00001"/>
</g>
<!-- Room -->
<g id="node11" class="node"><title>Room</title>
<path fill="none" stroke="black" d="M325.495,-452.8C325.495,-452.8 434.505,-452.8 434.505,-452.8 440.505,-452.8 446.505,-458.8 446.505,-464.8 446.505,-464.8 446.505,-591.2 446.505,-591.2 446.505,-597.2 440.505,-603.2 434.505,-603.2 434.505,-603.2 325.495,-603.2 325.495,-603.2 319.495,-603.2 313.495,-597.2 313.495,-591.2 313.495,-591.2 313.495,-464.8 313.495,-464.8 313.495,-458.8 319.495,-452.8 325.495,-452.8"/>
<text text-anchor="middle" x="380" y="-585.2" font-family="Times,serif" font-size="14.00">Room</text>
<polyline fill="none" stroke="black" points="313.495,-578.4 446.505,-578.4 "/>
<text text-anchor="start" x="321.495" y="-560.4" font-family="Times,serif" font-size="14.00">id :integer</text>
<text text-anchor="start" x="321.495" y="-543.6" font-family="Times,serif" font-size="14.00">name :string</text>
<text text-anchor="start" x="321.495" y="-526.8" font-family="Times,serif" font-size="14.00">address :text</text>
<text text-anchor="start" x="321.495" y="-510" font-family="Times,serif" font-size="14.00">size :integer</text>
<text text-anchor="start" x="321.495" y="-493.2" font-family="Times,serif" font-size="14.00">created_at :datetime</text>
<text text-anchor="start" x="321.495" y="-476.4" font-family="Times,serif" font-size="14.00">updated_at :datetime</text>
<text text-anchor="start" x="321.495" y="-459.6" font-family="Times,serif" font-size="14.00">location_id :integer</text>
</g>
<!-- Location&#45;&gt;Room -->
<g id="edge7" class="edge"><title>Location&#45;&gt;Room</title>
<path fill="none" stroke="#5a3a27" d="M380,-640.293C380,-631.53 380,-622.448 380,-613.422"/>
<ellipse fill="none" stroke="#5a3a27" cx="380" cy="-644.533" rx="4" ry="4"/>
<polygon fill="#5a3a27" stroke="#5a3a27" points="380,-613.276 384.5,-603.276 380,-608.276 380,-603.276 380,-603.276 380,-603.276 380,-608.276 375.5,-603.276 380,-613.276 380,-613.276"/>
</g>
<!-- Room&#45;&gt;Event -->
<g id="edge8" class="edge"><title>Room&#45;&gt;Event</title>
<path fill="none" stroke="#a3a1ee" d="M307.495,-447.394C306.327,-446.25 305.161,-445.118 304,-444 279.981,-420.883 252.484,-396.907 227.594,-376.042"/>
<ellipse fill="none" stroke="#a3a1ee" cx="310.511" cy="-450.387" rx="4.00002" ry="4.00002"/>
<polygon fill="#a3a1ee" stroke="#a3a1ee" points="227.29,-375.788 222.495,-365.927 223.451,-372.585 219.612,-369.382 219.612,-369.382 219.612,-369.382 223.451,-372.585 216.729,-372.837 227.29,-375.788 227.29,-375.788"/>
</g>
<!-- TimeSlot -->
<g id="node12" class="node"><title>TimeSlot</title>
<path fill="none" stroke="black" d="M627.495,-820C627.495,-820 736.505,-820 736.505,-820 742.505,-820 748.505,-826 748.505,-832 748.505,-832 748.505,-908 748.505,-908 748.505,-914 742.505,-920 736.505,-920 736.505,-920 627.495,-920 627.495,-920 621.495,-920 615.495,-914 615.495,-908 615.495,-908 615.495,-832 615.495,-832 615.495,-826 621.495,-820 627.495,-820"/>
<text text-anchor="middle" x="682" y="-902" font-family="Times,serif" font-size="14.00">TimeSlot</text>
<polyline fill="none" stroke="black" points="615.495,-895.2 748.505,-895.2 "/>
<text text-anchor="start" x="623.495" y="-877.2" font-family="Times,serif" font-size="14.00">id :integer</text>
<text text-anchor="start" x="623.495" y="-860.4" font-family="Times,serif" font-size="14.00">name :string</text>
<text text-anchor="start" x="623.495" y="-843.6" font-family="Times,serif" font-size="14.00">created_at :datetime</text>
<text text-anchor="start" x="623.495" y="-826.8" font-family="Times,serif" font-size="14.00">updated_at :datetime</text>
</g>
</g>
</svg>
